<mxfile host="Electron" modified="2024-08-24T01:57:09.580Z" agent="Mozilla/5.0 (Macintosh; Intel Mac OS X 10_15_7) AppleWebKit/537.36 (KHTML, like Gecko) draw.io/21.5.0 Chrome/112.0.5615.204 Electron/24.5.1 Safari/537.36" etag="AB3HqX8sWBpNWyfV6S9f" version="21.5.0" type="device">
  <diagram name="Page-1" id="R7hHzwO2y0YGt04Kh-6F">
    <mxGraphModel dx="909" dy="642" grid="0" gridSize="10" guides="1" tooltips="1" connect="1" arrows="1" fold="1" page="1" pageScale="1" pageWidth="1700" pageHeight="1100" math="1" shadow="0">
      <root>
        <mxCell id="0" />
        <mxCell id="1" parent="0" />
        <mxCell id="1VkX6hIEt_bBRdZEw0Mp-1" value="Turn" style="ellipse;whiteSpace=wrap;html=1;" vertex="1" parent="1">
          <mxGeometry x="567" y="306" width="120" height="80" as="geometry" />
        </mxCell>
        <mxCell id="1VkX6hIEt_bBRdZEw0Mp-2" value="Straight" style="ellipse;whiteSpace=wrap;html=1;" vertex="1" parent="1">
          <mxGeometry x="356" y="306" width="120" height="80" as="geometry" />
        </mxCell>
        <mxCell id="1VkX6hIEt_bBRdZEw0Mp-6" style="edgeStyle=orthogonalEdgeStyle;rounded=0;orthogonalLoop=1;jettySize=auto;html=1;exitX=0.5;exitY=1;exitDx=0;exitDy=0;entryX=0.5;entryY=1;entryDx=0;entryDy=0;curved=1;" edge="1" parent="1" source="1VkX6hIEt_bBRdZEw0Mp-3" target="1VkX6hIEt_bBRdZEw0Mp-4">
          <mxGeometry relative="1" as="geometry" />
        </mxCell>
        <mxCell id="1VkX6hIEt_bBRdZEw0Mp-3" value="Turn" style="ellipse;whiteSpace=wrap;html=1;" vertex="1" parent="1">
          <mxGeometry x="567" y="542" width="120" height="80" as="geometry" />
        </mxCell>
        <mxCell id="1VkX6hIEt_bBRdZEw0Mp-5" style="edgeStyle=orthogonalEdgeStyle;rounded=0;orthogonalLoop=1;jettySize=auto;html=1;exitX=0.5;exitY=0;exitDx=0;exitDy=0;entryX=0.5;entryY=0;entryDx=0;entryDy=0;curved=1;" edge="1" parent="1" source="1VkX6hIEt_bBRdZEw0Mp-4" target="1VkX6hIEt_bBRdZEw0Mp-3">
          <mxGeometry relative="1" as="geometry" />
        </mxCell>
        <mxCell id="1VkX6hIEt_bBRdZEw0Mp-4" value="Straight" style="ellipse;whiteSpace=wrap;html=1;" vertex="1" parent="1">
          <mxGeometry x="356" y="542" width="120" height="80" as="geometry" />
        </mxCell>
        <mxCell id="1VkX6hIEt_bBRdZEw0Mp-9" style="edgeStyle=orthogonalEdgeStyle;rounded=0;orthogonalLoop=1;jettySize=auto;html=1;exitX=0;exitY=0;exitDx=0;exitDy=0;entryX=0;entryY=1;entryDx=0;entryDy=0;curved=1;" edge="1" parent="1" source="1VkX6hIEt_bBRdZEw0Mp-4" target="1VkX6hIEt_bBRdZEw0Mp-4">
          <mxGeometry relative="1" as="geometry">
            <Array as="points">
              <mxPoint x="374" y="522" />
              <mxPoint x="325" y="522" />
              <mxPoint x="325" y="642" />
              <mxPoint x="374" y="642" />
            </Array>
          </mxGeometry>
        </mxCell>
        <mxCell id="1VkX6hIEt_bBRdZEw0Mp-10" style="edgeStyle=orthogonalEdgeStyle;rounded=0;orthogonalLoop=1;jettySize=auto;html=1;exitX=1;exitY=0;exitDx=0;exitDy=0;entryX=1;entryY=1;entryDx=0;entryDy=0;curved=1;" edge="1" parent="1" source="1VkX6hIEt_bBRdZEw0Mp-3" target="1VkX6hIEt_bBRdZEw0Mp-3">
          <mxGeometry relative="1" as="geometry" />
        </mxCell>
        <mxCell id="1VkX6hIEt_bBRdZEw0Mp-11" value="B" style="text;html=1;align=center;verticalAlign=middle;resizable=0;points=[];autosize=1;strokeColor=none;fillColor=none;" vertex="1" parent="1">
          <mxGeometry x="491" y="500" width="26" height="26" as="geometry" />
        </mxCell>
        <mxCell id="1VkX6hIEt_bBRdZEw0Mp-12" value="A" style="text;html=1;align=center;verticalAlign=middle;resizable=0;points=[];autosize=1;strokeColor=none;fillColor=none;" vertex="1" parent="1">
          <mxGeometry x="299" y="572" width="26" height="26" as="geometry" />
        </mxCell>
        <mxCell id="1VkX6hIEt_bBRdZEw0Mp-13" value="C" style="text;html=1;align=center;verticalAlign=middle;resizable=0;points=[];autosize=1;strokeColor=none;fillColor=none;" vertex="1" parent="1">
          <mxGeometry x="706" y="561" width="27" height="26" as="geometry" />
        </mxCell>
        <mxCell id="1VkX6hIEt_bBRdZEw0Mp-14" value="D" style="text;html=1;align=center;verticalAlign=middle;resizable=0;points=[];autosize=1;strokeColor=none;fillColor=none;" vertex="1" parent="1">
          <mxGeometry x="495" y="638" width="27" height="26" as="geometry" />
        </mxCell>
      </root>
    </mxGraphModel>
  </diagram>
</mxfile>
